<?xml version="1.0" encoding="utf-8"?>
<!-- Generator: Adobe Illustrator 24.1.1, SVG Export Plug-In . SVG Version: 6.00 Build 0)  -->
<svg version="1.1"
	 id="Capa_1" xmlns:cc="http://creativecommons.org/ns#" xmlns:dc="http://purl.org/dc/elements/1.1/" xmlns:inkscape="http://www.inkscape.org/namespaces/inkscape" xmlns:rdf="http://www.w3.org/1999/02/22-rdf-syntax-ns#" xmlns:sodipodi="http://sodipodi.sourceforge.net/DTD/sodipodi-0.dtd" xmlns:svg="http://www.w3.org/2000/svg"
	 xmlns="http://www.w3.org/2000/svg" xmlns:xlink="http://www.w3.org/1999/xlink" x="0px" y="0px" viewBox="0 0 512 512"
	 style="enable-background:new 0 0 512 512;" xml:space="preserve">
<style type="text/css">
	.st0{fill:#EDEDED;}
</style>
<sodipodi:namedview  bordercolor="#666666" borderopacity="1" fit-margin-bottom="0" fit-margin-left="0" fit-margin-right="0" fit-margin-top="0" gridtolerance="10" guidetolerance="10" id="namedview893" inkscape:current-layer="Capa_1" inkscape:cx="345.29142" inkscape:cy="32.731258" inkscape:pageopacity="0" inkscape:pageshadow="2" inkscape:window-height="1017" inkscape:window-maximized="1" inkscape:window-width="1920" inkscape:window-x="-8" inkscape:window-y="-8" inkscape:zoom="0.85862966" objecttolerance="10" pagecolor="#ffffff" showgrid="false">
	</sodipodi:namedview>
<g id="g860" transform="matrix(0.71708683,0,0,0.71708683,128,128)">
	<g id="close">
		<polygon id="polygon857" class="st0" points="357,321.3 214.2,178.5 357,35.7 321.3,0 178.5,142.8 35.7,0 0,35.7 142.8,178.5 
			0,321.3 35.7,357 178.5,214.2 321.3,357 		"/>
	</g>
</g>
<g id="g862" transform="translate(0,155)">
</g>
<g id="g864" transform="translate(0,155)">
</g>
<g id="g866" transform="translate(0,155)">
</g>
<g id="g868" transform="translate(0,155)">
</g>
<g id="g870" transform="translate(0,155)">
</g>
<g id="g872" transform="translate(0,155)">
</g>
<g id="g874" transform="translate(0,155)">
</g>
<g id="g876" transform="translate(0,155)">
</g>
<g id="g878" transform="translate(0,155)">
</g>
<g id="g880" transform="translate(0,155)">
</g>
<g id="g882" transform="translate(0,155)">
</g>
<g id="g884" transform="translate(0,155)">
</g>
<g id="g886" transform="translate(0,155)">
</g>
<g id="g888" transform="translate(0,155)">
</g>
<g id="g890" transform="translate(0,155)">
</g>
</svg>
